<?xml version="1.0" encoding="utf-8"?>
<!-- Generator: $$$/GeneralStr/196=Adobe Illustrator 27.6.0, SVG Export Plug-In . SVG Version: 6.00 Build 0)  -->
<svg version="1.1" id="Livello_1" xmlns="http://www.w3.org/2000/svg" xmlns:xlink="http://www.w3.org/1999/xlink" x="0px" y="0px"
	 viewBox="0 0 1024 1024" style="enable-background:new 0 0 1024 1024;" xml:space="preserve">
<style type="text/css">
	.st0{fill-rule:evenodd;clip-rule:evenodd;fill:url(#SVGID_1_);}
	.st1{fill-rule:evenodd;clip-rule:evenodd;fill:url(#SVGID_00000131334817422639602190000001571102727154789023_);}
</style>
<g>
	
		<linearGradient id="SVGID_1_" gradientUnits="userSpaceOnUse" x1="246.3052" y1="799.7521" x2="737.2742" y2="266.7698" gradientTransform="matrix(1 0 0 -1 0 1024)">
		<stop  offset="0" style="stop-color:#1AB4D8"/>
		<stop  offset="0.1557" style="stop-color:#1BA6CF"/>
		<stop  offset="0.4499" style="stop-color:#1D81B7"/>
		<stop  offset="0.8482" style="stop-color:#204691"/>
		<stop  offset="1" style="stop-color:#212E81"/>
	</linearGradient>
	<path class="st0" d="M879,505.5c0.1-7.4-0.2-14.7-1-22c-0.6-8.4-1.6-16.7-3-25c-1.1-10.9-3.1-21.5-6-32c-2.4-10.5-5.4-20.8-9-31
		c-3-10.5-7-20.5-12-30c-3.5-8.9-7.5-17.6-12-26c-4.3-8.3-8.9-16.3-14-24c-6.3-9.6-12.9-18.9-20-28c-5.9-8.3-12.6-16-20-23
		c-6-8-13-15-21-21c-7-7.4-14.7-14.1-23-20c-9.8-8.1-20.1-15.4-31-22c-9.2-6.1-18.8-11.4-29-16c-5-3.2-10.3-5.9-16-8
		c-5.3-2.9-11-5.2-17-7c-11.9-5.2-24.2-9.2-37-12c-49.9-11.1-113.7-28.5-157,7.5c-27.7,27.8-33.7,59.6-18,95.5c-0.1-1,0.2-1.8,1-2.5
		c-3.4,5.8,11.6,22,16,26.5c3.8,4.1,8.1,7.4,13,10c4,2.8,8.3,4.8,13,6c15.3,8.7,34.1,4.9,51,7c16.3,1.5,32.3,4.5,48,9
		c11.2,4.3,22.2,9,33,14c9.6,5.6,18.9,11.6,28,18c8,7,16,14,24,21c7.4,9,14.7,18,22,27c4.7,8.3,9.3,16.7,14,25
		c3.7,8.7,7.4,17.4,11,26c2.1,9.4,4.4,18.8,7,28c1.7,12.3,2.7,24.6,3,37c-0.5,12.8-1.9,25.4-4,38c0.7-1.3,1.6-2.6,2.5-4
		c-5.5,9.3-5.2,21-9.5,31c-4.5,11.6-9.5,22.9-15,34c-7,12-15,23.3-24,34c-16.6,17.9-35.3,33.3-56,46c-22.1,15-45.1,29.3-68.7,43.1
		c23.6-13.9,46.6-28.1,68.7-43.1c-19,9.8-39,16.8-60,21c-25.9,4.8-51.9,5.2-78,1c-9.6-2.5-19.3-5.2-29-8c-11-4.7-22-9.7-33-15
		c-10.8-6.6-21.2-13.9-31-22c-6.6-6.3-13.3-12.6-20-19c-6.7-8.1-13.1-16.4-19-25c-5-8.7-10-17.4-15-26c-0.8-3.6-2.1-6.9-4-10
		c-2.3-7.3-4.7-14.7-7-22c-2.5-9.6-4.5-19.2-6-29c-1.2-10.6-1.9-21.3-2-32c0-11.3,0-22.7,0-34c0-13.3,0-26.7,0-40
		c0-10.7,0-21.3,0-32c0-12,0-24,0-36c0-11.3,0-22.7,0-34c12.2-104.5-139.6-130.2-161.5-27c-0.5,40-0.7,80-0.5,120
		c0,11.3,0,22.7,0,34s0,22.7,0,34s0,22.7,0,34c0.3,11.7,1.3,23.4,3,35c1.1,11.5,3.1,22.8,6,34c1.5,9.8,4.2,19.1,8,28
		c-0.1-1.9,0.4-2.2,1.5-1c-5.4-3.1,7.2,26.7,8.5,29c2.2,7.4,5.2,14.4,9,21c1.2,3.7,2.8,7,5,10c4.2,9.2,9.2,17.9,15,26
		c4.8,8.4,10.2,16.4,16,24c6.2,8.4,12.9,16.4,20,24c7,8.6,14.6,16.6,23,24c7,7.4,14.7,14.1,23,20c6.4,6,13.4,11.4,21,16
		c10.5,7.4,21.5,14.1,33,20c7.3,3.7,14.7,7.3,22,11c5.5,2.6,11.2,4.9,17,7c10.9,5,22.2,9,34,12c14.8,4.1,29.8,7.4,45,10
		c7.6,1.3,15.7,3.7,22.1,0.1c-1,0.7-2.1,1.4-3.1,1.9c9.2,1.2,18.6,1.8,28,2c22.5-0.4,46.1,0.6,68-5c-0.4,0.1-0.8-0.1-1-0.5
		c88.8-12.3,163.7-56,222-123.5c16.3-18.7,30.3-39,42-61c4.8-7.2,8.8-14.9,12-23c4.1-7.9,7.5-16.3,10-25c5.4-12.1,9.4-24.8,12-38
		c4.1-12.6,6.7-25.6,8-39c1.2-5.6,1.9-11.3,2-17c1-5.1,1.3-10.5,1-16C879,523.1,879.3,514.4,879,505.5z M393.1,820.3
		c32.8-19.1,66.6-37.6,100.1-56.4C459.7,782.7,425.9,801.2,393.1,820.3z M518.6,749.4c7.4-4.3,14.9-8.6,22.2-12.9
		C533.4,740.9,526,745.2,518.6,749.4z M754.5,614.5c6.2-5.3,13.1-10,20.2-14.5C767.5,604.5,760.7,609.3,754.5,614.5z M801.2,585
		c6.3-3.4,12.6-6.7,18.8-10.1C813.8,578.3,807.5,581.6,801.2,585z M820.3,574.7c3.7-2.1,7.5-4.2,11.1-6.3
		C827.7,570.5,824,572.6,820.3,574.7z M844.5,562.5c1.2-2.3,3.2-4.3,5.7-6C847.7,558.3,845.7,560.2,844.5,562.5z M860.5,550.6
		c2.9-1.5,5.7-2.9,8.2-4.4C866.2,547.7,863.4,549.1,860.5,550.6z"/>
	
		<linearGradient id="SVGID_00000086679802500516362230000003347553429767167392_" gradientUnits="userSpaceOnUse" x1="395.582" y1="631.1125" x2="596.4859" y2="424.7289" gradientTransform="matrix(1 0 0 -1 0 1024)">
		<stop  offset="0" style="stop-color:#1AB4D8"/>
		<stop  offset="0.1557" style="stop-color:#1BA6CF"/>
		<stop  offset="0.4499" style="stop-color:#1D81B7"/>
		<stop  offset="0.8482" style="stop-color:#204691"/>
		<stop  offset="1" style="stop-color:#212E81"/>
	</linearGradient>
	<path style="fill-rule:evenodd;clip-rule:evenodd;fill:url(#SVGID_00000086679802500516362230000003347553429767167392_);" d="
		M368,513.8c-0.3,4.5,0,8.9,1,13c0-0.8,0.3-1.4,0.8-2c-2.2,5.1,0.1,11.9,1.2,17c-0.2-0.8,0-1.8,0.4-2.6c-1,3.2,1,8.9,1.6,11.6
		c0.8,4.3,2.1,8.3,4,12c0.2-0.6,0.4-1.2,0.7-1.8c-1.3,3.5,0.9,7.9,3.3,10.8c1.5,4.3,3.5,8.3,6,12c1.2,3,2.8,5.7,5,8
		c1.5-0.7,3.1-1.4,4.8-2.1c-1.7,0.7-3.3,1.4-4.8,2.1c1.6,3.9,3.9,7.2,7,10c2,3.6,4.6,6.6,8,9c3,3.7,6.3,7,10,10c2.6,2.3,5.3,4.7,8,7
		c3.4,2.8,7.1,5.1,11,7c3.6,2.8,7.6,5.2,12,7c3.7,2.2,7.7,3.8,12,5c4.3,2.4,9,4.1,14,5c5.8,2,11.8,3.3,18,4c6,0.5,12,0.8,18,1
		c55.2-0.9,97.2-24.6,126-71c3.8-5.9,6.8-12.2,9-19c2.4-4.3,4.1-9,5-14c2.5-5.6,3.8-11.6,4-18c1-3.1,1.3-6.5,1-10
		c1-6.8,1.3-13.8,1-21c0.2-3.4-0.1-6.8-1-10c-0.4-4.1-1.1-8.1-2-12c-0.7-4.1-1.7-8.1-3-12c-0.8-3.6-2.2-7-4-10
		c-2.5-7.4-5.8-14.5-10-21c-0.7,0.6-1.5,1.2-2.3,1.7c0.8-0.5,1.5-1.1,2.3-1.7c-1.9-3.7-4.2-7.1-7-10c-1.3-2.6-3-5-5-7
		c-2.5-3.8-5.5-7.1-9-10c-2.4-3.4-5.4-6-9-8c-2.9-3.1-6.3-5.8-10-8c-3.2-3.1-6.8-5.4-11-7c-3.8-3.1-8.2-5.4-13-7
		c-3.9-2.6-8.2-4.3-13-5c-80.9-30.8-174.8,25-189,110c-1.4,4.9-2.1,9.9-2,15c0.3-0.5,0.5-0.9,0.8-1.4
		C367.1,504.4,368.4,509.2,368,513.8z M651.5,520.8c-0.6,1.6-1.6,2.8-2.7,3.7C649.9,523.5,650.9,522.3,651.5,520.8z M644.7,526.9
		c-1.9,0.9-3.9,1.7-5.7,2.8C640.7,528.7,642.8,527.8,644.7,526.9z M638.6,569c-2.2,1.5-4.6,2.7-6.9,3.9
		C634,571.7,636.4,570.5,638.6,569z M635.2,505c-1.8,0.9-3.6,1.9-5.3,2.9C631.6,506.9,633.4,506,635.2,505z M625.2,576.4
		c-2,1.2-3.9,2.6-5.6,4.4C621.2,579,623.1,577.6,625.2,576.4z M599.5,550.8c-0.6,1.6-1.6,2.8-2.7,3.7
		C597.9,553.5,598.9,552.3,599.5,550.8z M593.5,462.8c-1.2,1.2-2.5,2.3-3.9,3.2C591,465,592.3,464,593.5,462.8z M592.7,556.9
		c-1.9,0.9-3.9,1.7-5.7,2.8C588.7,558.7,590.8,557.8,592.7,556.9z M580.2,471.2c-1.7,0.9-3.3,1.7-4.9,2.7
		C576.9,472.9,578.6,472.1,580.2,471.2z M573.5,540.6c-2.4,1.5-4.7,3.2-7,5.2C568.7,543.8,571.1,542.1,573.5,540.6z M547.5,580.8
		c-0.6,1.6-1.6,2.8-2.7,3.7C545.9,583.5,546.9,582.3,547.5,580.8z M540.7,586.9c-1.9,0.9-3.9,1.7-5.7,2.8
		C536.7,588.7,538.8,587.8,540.7,586.9z M490,654.3c1-0.8,2-1.6,3-2.3C492,652.6,491,653.4,490,654.3z M509.3,643.7
		c-2.2,1.3-4.6,2.4-7.1,3.5C504.7,646.1,507.1,645,509.3,643.7z M501.5,634.8c-1.2,1.2-2.5,2.3-3.9,3.2
		C499,637,500.3,636,501.5,634.8z M495.5,610.8c-0.6,1.6-1.6,2.8-2.7,3.7C493.9,613.5,494.9,612.3,495.5,610.8z M490.1,616.2
		c-2.3,1.2-4.9,2.2-7.1,3.5C485.2,618.4,487.8,617.5,490.1,616.2z M424.3,614.2c-1.9,0.9-3.8,1.7-5.3,3
		C420.5,615.9,422.4,615.1,424.3,614.2z M412.5,579.8c-1.7,1.9-3.7,3.5-5.8,4.8C408.9,583.2,410.8,581.6,412.5,579.8z M375.5,536.8
		c-1.1-0.1-1.9,0-2.6,0.4C373.7,536.6,374.6,536.3,375.5,536.8z M374.2,522.2c-1.1,0.9-2.3,1.5-3.6,1.9
		C371.6,523.4,373,522.9,374.2,522.2z"/>
</g>
</svg>
